<svg width="60" height="60" viewBox="0 0 60 60" fill="none" xmlns="http://www.w3.org/2000/svg">
<path d="M51.25 6.25H8.75L12.5 48.75L30 53.75L47.5 48.75L51.25 6.25Z" fill="url(#paint0_linear_9_52)"/>
<path d="M30 10V49.875L44 45.875L47.125 10H30Z" fill="url(#paint1_linear_9_52)"/>
<path d="M30 31.25V26.25H40.75L39.875 40.625L30 43.875V38.625L35.125 36.875L35.5 31.25H30ZM41.125 21.25L41.5 16.25H30V21.25H41.125Z" fill="white"/>
<path d="M30 38.625V43.875L20.125 40.625L19.625 33.75H24.625L24.875 36.875L30 38.625ZM23.875 21.25H30V16.25H18.625L19.5 31.25H30V26.25H24.25L23.875 21.25Z" fill="#EEEEEE"/>
<defs>
<linearGradient id="paint0_linear_9_52" x1="12.0703" y1="10.1094" x2="49.5706" y2="45.1211" gradientUnits="userSpaceOnUse">
<stop stop-color="#A8FE75"/>
<stop offset="0.765625" stop-color="#19A6A5"/>
</linearGradient>
<linearGradient id="paint1_linear_9_52" x1="31.3379" y1="13.2398" x2="54.8898" y2="23.7944" gradientUnits="userSpaceOnUse">
<stop stop-color="#A8FE75"/>
<stop offset="0.765625" stop-color="#19A6A5"/>
</linearGradient>
</defs>
</svg>
