<svg width="60" height="60" viewBox="0 0 60 60" fill="none" xmlns="http://www.w3.org/2000/svg">
<path d="M52.5 7.5H7.5V52.5H52.5V7.5Z" fill="url(#paint0_linear_9_85)"/>
<path d="M34.3625 27.5H17.7838V31.58H23.73V50H28.4413V31.58H34.3625V27.5Z" fill="white"/>
<path d="M48.9925 32.605C48.9925 32.605 46.7588 31.115 44.2338 31.115C41.7088 31.115 40.8 32.315 40.8 33.5975C40.8 36.9075 50.0263 36.5763 50.0263 43.2375C50.0263 53.4987 35.9588 48.9475 35.9588 48.9475V44.025C35.9588 44.025 38.6488 46.0525 41.875 46.0525C45.1013 46.0525 44.9788 43.9425 44.9788 43.6525C44.9788 40.5913 35.835 40.5913 35.835 33.805C35.835 24.5788 49.1575 28.2188 49.1575 28.2188L48.9925 32.605Z" fill="white"/>
<defs>
<linearGradient id="paint0_linear_9_85" x1="11.0156" y1="11.1563" x2="46.5937" y2="48.2813" gradientUnits="userSpaceOnUse">
<stop stop-color="#A8FE75"/>
<stop offset="0.765625" stop-color="#19A6A5"/>
</linearGradient>
</defs>
</svg>
